<svg xmlns="http://www.w3.org/2000/svg" width="502" height="82" viewBox="0 0 502 82" version="1.1"><path d="M 5.500 1.208 C 1.094 3.734, 1.065 3.985, 1.032 39.300 C 1.005 67.600, 1.247 73.577, 2.517 76.033 C 5.663 82.116, 4.425 82, 66.315 82 C 122.672 82, 122.733 81.998, 125.486 79.832 C 130.712 75.721, 131 73.683, 130.998 40.782 C 130.997 6.744, 130.702 5.100, 124 1.752 C 120.790 0.148, 115.824 0.005, 64 0.032 C 23.383 0.053, 6.938 0.383, 5.500 1.208 M 330.804 4.041 C 326 6.578, 322.371 11.422, 321.081 17.020 C 319.743 22.829, 319.698 58.132, 321.020 65.104 C 322.141 71.018, 325.840 76.403, 330.761 79.287 C 334.632 81.555, 343.649 81.750, 347.705 79.653 C 351.955 77.455, 356.710 71.706, 357.940 67.277 C 359.265 62.506, 359.336 20.660, 358.027 16.095 C 354.636 4.272, 341.435 -1.574, 330.804 4.041 M 154 41.772 C 154 80.544, 154 80.544, 160.750 80.473 C 167.500 80.403, 167.500 80.403, 167.778 66.701 C 168.056 53, 168.056 53, 173.068 53 C 180.975 53, 188.437 48.274, 190.933 41.685 C 191.520 40.137, 192 33.931, 192 27.895 C 192 19.099, 191.624 16.184, 190.106 13.210 C 185.936 5.039, 181.028 3, 165.532 3 C 154 3, 154 3, 154 41.772 M 198 41.500 C 198 80, 198 80, 205 80 C 212 80, 212 80, 212 41.500 C 212 3, 212 3, 205 3 C 198 3, 198 3, 198 41.500 M 233.607 4.750 C 232.218 9.350, 217 77.530, 217 79.149 C 217 80.759, 217.840 81, 223.461 81 C 229.922 81, 229.922 81, 231.161 75 C 232.400 69, 232.400 69, 240.681 69 C 248.897 69, 248.967 69.022, 249.585 71.750 C 251.710 81.134, 250.864 80.293, 258.288 80.402 C 261.980 80.456, 265.001 80.133, 265 79.684 C 265 79.235, 261.175 62.146, 256.500 41.708 C 251.825 21.270, 248 4.200, 248 3.774 C 248 3.348, 244.880 3, 241.067 3 C 235.333 3, 234.044 3.302, 233.607 4.750 M 270 41.954 C 270 81, 270 81, 276.500 81 C 283 81, 283 81, 283.047 60.250 C 283.094 39.500, 283.094 39.500, 290.822 60 C 298.551 80.500, 298.551 80.500, 305.276 80.796 C 312 81.091, 312 81.091, 312 42.046 C 312 3, 312 3, 305.022 3 C 298.043 3, 298.043 3, 297.772 21.985 C 297.500 40.969, 297.500 40.969, 290.431 22.235 C 283.362 3.500, 283.362 3.500, 276.681 3.204 C 270 2.909, 270 2.909, 270 41.954 M 367.238 41.750 C 367.500 80.500, 367.500 80.500, 374 80.418 C 380.500 80.336, 380.500 80.336, 381.037 69.418 C 381.857 52.746, 382.198 52.678, 389.895 67.651 C 396.500 80.500, 396.500 80.500, 401.881 80.807 C 404.840 80.976, 407.886 80.874, 408.648 80.582 C 409.682 80.185, 407.543 75.072, 400.237 60.475 C 390.440 40.900, 390.440 40.900, 399.678 22.700 C 404.758 12.690, 408.934 4.162, 408.958 3.750 C 408.981 3.337, 405.955 3, 402.234 3 C 395.468 3, 395.468 3, 388.291 17.250 C 381.115 31.500, 381.115 31.500, 381.058 17.250 C 381 3, 381 3, 373.988 3 C 366.977 3, 366.977 3, 367.238 41.750 M 414 41.982 C 414 80.964, 414 80.964, 431.750 80.479 C 449.500 79.994, 449.500 79.994, 449.798 73.997 C 450.095 68, 450.095 68, 439.048 68 C 428 68, 428 68, 428 58.039 C 428 48.078, 428 48.078, 436.750 47.789 C 445.500 47.500, 445.500 47.500, 445.800 41.750 C 446.100 36, 446.100 36, 437.050 36 C 428 36, 428 36, 428 25.500 C 428 15, 428 15, 439 15 C 450 15, 450 15, 450 9 C 450 3, 450 3, 432 3 C 414 3, 414 3, 414 41.982 M 451 3.578 C 451 3.945, 455.050 13.610, 460 25.054 C 469 45.862, 469 45.862, 469 63.431 C 469 81, 469 81, 476 81 C 483 81, 483 81, 483 63.648 C 483 46.295, 483 46.295, 492.443 24.605 C 501.886 2.915, 501.886 2.915, 494.873 3.207 C 487.860 3.500, 487.860 3.500, 482.180 16.729 C 476.969 28.866, 475 32.145, 475 28.686 C 475 27.963, 472.616 22, 469.702 15.436 C 464.404 3.500, 464.404 3.500, 457.702 3.204 C 454.016 3.042, 451 3.210, 451 3.578 M 11.456 28.843 C 11.495 48.361, 11.307 50.987, 9.750 52.716 C 8.370 54.247, 8 56.473, 8 63.257 C 8 73.984, 8.786 75, 17.085 75 C 23.027 75, 23.027 75, 22.763 41.250 C 22.500 7.500, 22.500 7.500, 16.956 7.206 C 11.413 6.913, 11.413 6.913, 11.456 28.843 M 26 41 C 26 75, 26 75, 35 75 C 44 75, 44 75, 44 63.526 C 44 52.051, 44 52.051, 41.121 50.563 C 39.538 49.744, 37.963 48.346, 37.621 47.455 C 37.280 46.565, 37 37.098, 37 26.418 C 37 7, 37 7, 31.500 7 C 26 7, 26 7, 26 41 M 52 27.427 C 52 47.855, 52 47.855, 49.500 49.821 C 47.090 51.717, 47 52.205, 47 63.394 C 47 75, 47 75, 55 75 C 63 75, 63 75, 63 63 C 63 53.701, 62.702 51, 61.674 51 C 60.945 51, 59.370 49.958, 58.174 48.686 C 56.094 46.471, 56 45.521, 56 26.686 C 56 7.667, 55.932 7, 54 7 C 52.065 7, 52 7.667, 52 27.427 M 72 26.811 C 72 45.367, 71.871 46.762, 69.961 48.811 C 68.840 50.015, 67.490 51, 66.961 51 C 66.400 51, 66 55.991, 66 63 C 66 75, 66 75, 74.500 75 C 83 75, 83 75, 83 63 C 83 53.271, 82.730 51, 81.573 51 C 80.787 51, 79.212 49.814, 78.073 48.365 C 76.138 45.906, 76 44.442, 76 26.365 C 76 7.667, 75.931 7, 74 7 C 72.067 7, 72 7.667, 72 26.811 M 92 26.777 C 92 43.059, 91.725 46.948, 90.443 48.777 C 89.587 50, 88.237 51, 87.443 51 C 86.266 51, 86 53.210, 86 63 C 86 75, 86 75, 95 75 C 104 75, 104 75, 104 41 C 104 7, 104 7, 98 7 C 92 7, 92 7, 92 26.777 M 107 41 C 107 75, 107 75, 113.878 75 C 123.041 75, 123.437 74.451, 123.111 62.176 C 122.914 54.789, 122.457 52.062, 121.177 50.647 C 119.743 49.063, 119.456 45.766, 119.194 27.897 C 118.888 7, 118.888 7, 112.944 7 C 107 7, 107 7, 107 41 M 336 16 C 334.113 17.887, 334 19.333, 334 41.500 C 334 63.667, 334.113 65.113, 336 67 C 338.491 69.491, 341.189 69.554, 343.345 67.171 C 344.789 65.576, 345 62.263, 345 41.228 C 345 17.442, 344.970 17.092, 342.777 15.557 C 339.840 13.499, 338.407 13.593, 336 16 M 168 28 C 168 41, 168 41, 171.500 41 C 177.477 41, 179 38.452, 179 28.455 C 179 20.715, 178.769 19.678, 176.545 17.455 C 175.014 15.923, 172.946 15, 171.045 15 C 168 15, 168 15, 168 28 M 238.157 44.250 C 236.960 49.888, 235.985 54.837, 235.990 55.250 C 235.996 55.663, 238.259 56, 241.019 56 C 245.711 56, 246.004 55.853, 245.519 53.750 C 242.322 39.904, 241.030 34.696, 240.712 34.379 C 240.504 34.171, 239.354 38.613, 238.157 44.250" stroke="none" fill="#34496f" fill-rule="evenodd"/></svg>